<svg xmlns="http://www.w3.org/2000/svg" width="256" height="256" viewBox="0 0 100 100"><path d="M3.92 90.60L3.92 90.60Q2.16 90.60 1.00 89.44Q-0.16 88.28-0.16 86.52L-0.16 86.52L-0.16 50.04Q-0.08 43.72 2.80 38.68Q5.68 33.64 10.64 30.72Q15.60 27.80 21.84 27.80L21.84 27.80Q28.16 27.80 33.12 30.72Q38.08 33.64 41.00 38.68Q43.92 43.72 43.92 50.04L43.92 50.04Q43.92 56.36 41.24 61.36Q38.56 66.36 33.92 69.28Q29.28 72.20 23.44 72.20L23.44 72.20Q18.72 72.20 14.76 70.24Q10.80 68.28 8.00 64.92L8.00 64.92L8.00 86.52Q8.00 88.28 6.88 89.44Q5.76 90.60 3.92 90.60ZM21.84 65L21.84 65Q25.92 65 29.12 63.04Q32.32 61.08 34.20 57.68Q36.08 54.28 36.08 50.04L36.08 50.04Q36.08 45.72 34.20 42.32Q32.32 38.92 29.12 36.96Q25.92 35.00 21.84 35.00L21.84 35.00Q17.84 35.00 14.60 36.96Q11.36 38.92 9.52 42.32Q7.68 45.72 7.68 50.04L7.68 50.04Q7.68 54.28 9.52 57.68Q11.36 61.08 14.60 63.04Q17.84 65 21.84 65ZM78.08 72.20L78.08 72.20Q71.84 72.20 66.88 69.28Q61.92 66.36 59.04 61.32Q56.16 56.28 56.08 49.96L56.08 49.96L56.08 13.48Q56.08 11.64 57.24 10.52Q58.40 9.40 60.16 9.40L60.16 9.40Q62 9.40 63.12 10.52Q64.24 11.64 64.24 13.48L64.24 13.48L64.24 35.08Q67.04 31.72 71 29.76Q74.96 27.80 79.68 27.80L79.68 27.80Q85.52 27.80 90.16 30.72Q94.80 33.64 97.48 38.64Q100.16 43.64 100.16 49.96L100.16 49.96Q100.16 56.28 97.24 61.32Q94.32 66.36 89.36 69.28Q84.40 72.20 78.08 72.20ZM78.08 65L78.08 65Q82.16 65 85.36 63.04Q88.56 61.08 90.44 57.64Q92.32 54.20 92.32 49.96L92.32 49.96Q92.32 45.64 90.44 42.28Q88.56 38.92 85.36 36.96Q82.16 35.00 78.08 35.00L78.08 35.00Q74.08 35.00 70.84 36.96Q67.60 38.92 65.76 42.28Q63.92 45.64 63.92 49.96L63.92 49.96Q63.92 54.20 65.76 57.64Q67.60 61.08 70.84 63.04Q74.08 65 78.08 65Z" fill="#b898f3"></path></svg>